<svg xmlns="http://www.w3.org/2000/svg" xmlns:xlink="http://www.w3.org/1999/xlink" version="1.1" x="0px" y="0px" viewBox="0 0 100 100" enable-background="new 0 0 100 100" xml:space="preserve"><path d="M81.093,75.096c-1.465,0.783-3.565,1.54-6.305,2.273c-2.739,0.729-5.667,1.124-8.786,1.176  c-3.344,0.017-6.488-0.514-9.436-1.592c-2.942-1.077-5.492-2.803-7.644-5.174c-1.986-2.232-3.442-5.328-4.368-9.284h33.227v-9.102  H42.701c0-0.698,0-1.468,0-2.312c-0.021-1.562,0.023-3.055,0.133-4.475h34.947v-9.1H44.819c0.883-3.597,2.295-6.519,4.237-8.767  c2.08-2.488,4.507-4.325,7.28-5.515c2.775-1.188,5.732-1.778,8.87-1.77c2.95,0.042,5.722,0.396,8.308,1.062  c2.588,0.666,4.76,1.392,6.521,2.174l3.707-15.025c-2.418-1.079-5.329-1.997-8.737-2.751c-3.409-0.753-7.117-1.145-11.12-1.179  c-6.316,0.032-12.044,1.217-17.188,3.555c-5.143,2.338-9.541,5.652-13.194,9.939c-4.274,4.845-7.253,10.937-8.938,18.277H15.73v9.1  h7.411c-0.043,1.445-0.086,2.888-0.129,4.332c0,0.89,0,1.709,0,2.454H15.73v9.102h8.576c1.252,7.015,3.67,12.748,7.254,17.2  c3.69,4.744,8.302,8.354,13.834,10.832c5.533,2.477,11.608,3.721,18.226,3.736c4.283-0.05,8.223-0.558,11.812-1.517  c3.592-0.963,6.536-2.076,8.838-3.343L81.093,75.096z"></path></svg>