<svg xmlns="http://www.w3.org/2000/svg" xmlns:xlink="http://www.w3.org/1999/xlink" version="1.1" x="0px" y="0px" viewBox="0 0 100 125" enable-background="new 0 0 100 100" xml:space="preserve"><g><path d="M50,7c23.7,0,43,19.3,43,43S73.7,93,50,93S7,73.7,7,50S26.3,7,50,7 M50,5C25.2,5,5,25.1,5,50c0,24.9,20.2,45,45,45   s45-20.1,45-45C95,25.1,74.8,5,50,5L50,5z"/></g><rect x="23.4" y="37.1" width="53.3" height="1.9"/><rect x="23.4" y="49.1" width="53.3" height="1.9"/><rect x="23.4" y="61.1" width="53.3" height="1.9"/><circle cx="35.6" cy="38" r="5.5"/><circle cx="56.8" cy="50" r="5.5"/><circle cx="42.9" cy="62" r="5.5"/><text x="0" y="115" fill="#000000" font-size="5px" font-weight="bold" font-family="'Helvetica Neue', Helvetica, Arial-Unicode, Arial, Sans-serif">Created by Hysen Drogu</text><text x="0" y="120" fill="#000000" font-size="5px" font-weight="bold" font-family="'Helvetica Neue', Helvetica, Arial-Unicode, Arial, Sans-serif">from the Noun Project</text></svg>